<?xml version="1.0" encoding="UTF-8" standalone="no" ?>
<!DOCTYPE svg PUBLIC "-//W3C//DTD SVG 1.1//EN" "http://www.w3.org/Graphics/SVG/1.1/DTD/svg11.dtd">
<svg xmlns="http://www.w3.org/2000/svg" xmlns:xlink="http://www.w3.org/1999/xlink" version="1.1" width="1080" height="1080" viewBox="0 0 1080 1080" xml:space="preserve">
<desc>Created with Fabric.js 5.2.4</desc>
<defs>
</defs>
<g transform="matrix(1 0 0 1 540 540)" id="de0b312c-ed89-40e8-8758-f42fae25e2ad"  >
<rect style="stroke: none; stroke-width: 1; stroke-dasharray: none; stroke-linecap: butt; stroke-dashoffset: 0; stroke-linejoin: miter; stroke-miterlimit: 4; fill: rgb(255,255,255); fill-rule: nonzero; opacity: 1; visibility: hidden;" vector-effect="non-scaling-stroke"  x="-540" y="-540" rx="0" ry="0" width="1080" height="1080" />
</g>
<g transform="matrix(1 0 0 1 540 540)" id="298dd6b2-8f80-4c6b-ba7c-9c075730e101"  >
</g>
<g transform="matrix(1 0 0 1 611.5 477.28)"  >
<path style="stroke: none; stroke-width: 1; stroke-dasharray: none; stroke-linecap: butt; stroke-dashoffset: 0; stroke-linejoin: miter; stroke-miterlimit: 4; fill: rgb(6,6,6); fill-rule: evenodd; opacity: 1;" vector-effect="non-scaling-stroke"  transform=" translate(-321.19, -209.02)" d="M 364.5 140.5 C 364.427 142.027 365.094 143.027 366.5 143.5 C 368.873 145.579 370.206 148.246 370.5 151.5 C 370.41 154.152 371.076 156.485 372.5 158.5 C 374.127 169.232 373.627 179.899 371 190.5 C 367.819 197.189 362.652 201.689 355.5 204 C 362.935 205.211 368.935 208.711 373.5 214.5 C 373.427 216.027 374.094 217.027 375.5 217.5 C 378.394 222.005 380.227 227.005 381 232.5 C 385.689 265.783 371.522 284.617 338.5 289 C 318.503 289.5 298.503 289.667 278.5 289.5 C 273.012 238.111 267.012 186.778 260.5 135.5 C 260.76 133.813 261.427 132.313 262.5 131 C 262.043 130.586 261.709 130.086 261.5 129.5 C 286.493 128.334 311.493 128.167 336.5 129 C 347.423 129.305 356.757 133.138 364.5 140.5 Z M 296.5 161.5 C 307.896 161.091 319.23 161.591 330.5 163 C 336.505 169.485 338.005 176.985 335 185.5 C 333.505 190.162 330.339 192.828 325.5 193.5 C 315.833 193.5 306.167 193.5 296.5 193.5 C 296.5 182.833 296.5 172.167 296.5 161.5 Z M 328.5 223.5 C 337.782 224.782 342.448 230.116 342.5 239.5 C 342.142 250.354 336.476 255.521 325.5 255 C 315.839 255.5 306.172 255.666 296.5 255.5 C 296.5 244.833 296.5 234.167 296.5 223.5 C 307.167 223.5 317.833 223.5 328.5 223.5 Z" stroke-linecap="round" />
</g>
<g transform="matrix(1 0 0 1 655.81 410.26)"  >
<path style="stroke: none; stroke-width: 1; stroke-dasharray: none; stroke-linecap: butt; stroke-dashoffset: 0; stroke-linejoin: miter; stroke-miterlimit: 4; fill: rgb(150,150,150); fill-rule: evenodd; opacity: 0.475;" vector-effect="non-scaling-stroke"  transform=" translate(-365.5, -142)" d="M 364.5 140.5 C 365.906 140.973 366.573 141.973 366.5 143.5 C 365.094 143.027 364.427 142.027 364.5 140.5 Z" stroke-linecap="round" />
</g>
<g transform="matrix(1 0 0 1 460.81 502.7)"  >
<path style="stroke: none; stroke-width: 1; stroke-dasharray: none; stroke-linecap: butt; stroke-dashoffset: 0; stroke-linejoin: miter; stroke-miterlimit: 4; fill: rgb(164,164,164); fill-rule: evenodd; opacity: 0.372;" vector-effect="non-scaling-stroke"  transform=" translate(-170.5, -234.44)" d="M 223.5 154.5 C 220.5 154.5 217.5 154.5 214.5 154.5 C 214.5 174.833 214.5 195.167 214.5 215.5 C 195.5 215.5 176.5 215.5 157.5 215.5 C 157.5 195.167 157.5 174.833 157.5 154.5 C 144.5 154.5 131.5 154.5 118.5 154.5 C 118.5 207.833 118.5 261.167 118.5 314.5 C 131.5 314.5 144.5 314.5 157.5 314.5 C 157.5 293.167 157.5 271.833 157.5 250.5 C 176.674 250.17 195.674 250.503 214.5 251.5 C 214.167 251.5 213.833 251.5 213.5 251.5 C 195.167 251.5 176.833 251.5 158.5 251.5 C 158.5 272.833 158.5 294.167 158.5 315.5 C 144.833 315.5 131.167 315.5 117.5 315.5 C 117.5 261.5 117.5 207.5 117.5 153.5 C 131.167 153.5 144.833 153.5 158.5 153.5 C 158.5 173.833 158.5 194.167 158.5 214.5 C 176.833 214.5 195.167 214.5 213.5 214.5 C 213.5 194.167 213.5 173.833 213.5 153.5 C 217.042 153.187 220.375 153.521 223.5 154.5 Z" stroke-linecap="round" />
</g>
<g transform="matrix(1 0 0 1 470.31 502.76)"  >
<path style="stroke: none; stroke-width: 1; stroke-dasharray: none; stroke-linecap: butt; stroke-dashoffset: 0; stroke-linejoin: miter; stroke-miterlimit: 4; fill: rgb(1,1,1); fill-rule: evenodd; opacity: 1;" vector-effect="non-scaling-stroke"  transform=" translate(-180, -234.5)" d="M 223.5 154.5 C 229.747 206.805 235.747 259.139 241.5 311.5 C 241.5 312.5 241.5 313.5 241.5 314.5 C 232.5 314.5 223.5 314.5 214.5 314.5 C 214.5 293.5 214.5 272.5 214.5 251.5 C 195.674 250.503 176.674 250.17 157.5 250.5 C 157.5 271.833 157.5 293.167 157.5 314.5 C 144.5 314.5 131.5 314.5 118.5 314.5 C 118.5 261.167 118.5 207.833 118.5 154.5 C 131.5 154.5 144.5 154.5 157.5 154.5 C 157.5 174.833 157.5 195.167 157.5 215.5 C 176.5 215.5 195.5 215.5 214.5 215.5 C 214.5 195.167 214.5 174.833 214.5 154.5 C 217.5 154.5 220.5 154.5 223.5 154.5 Z" stroke-linecap="round" />
</g>
<g transform="matrix(1 0 0 1 661.81 423.26)"  >
<path style="stroke: none; stroke-width: 1; stroke-dasharray: none; stroke-linecap: butt; stroke-dashoffset: 0; stroke-linejoin: miter; stroke-miterlimit: 4; fill: rgb(101,101,101); fill-rule: evenodd; opacity: 0.729;" vector-effect="non-scaling-stroke"  transform=" translate(-371.5, -155)" d="M 370.5 151.5 C 371.924 153.515 372.59 155.848 372.5 158.5 C 371.076 156.485 370.41 154.152 370.5 151.5 Z" stroke-linecap="round" />
</g>
<g transform="matrix(1 0 0 1 600.75 446.32)"  >
<path style="stroke: none; stroke-width: 1; stroke-dasharray: none; stroke-linecap: butt; stroke-dashoffset: 0; stroke-linejoin: miter; stroke-miterlimit: 4; fill: rgb(151,151,151); fill-rule: evenodd; opacity: 0.504;" vector-effect="non-scaling-stroke"  transform=" translate(-310.44, -178.06)" d="M 296.5 161.5 C 296.5 172.167 296.5 182.833 296.5 193.5 C 306.167 193.5 315.833 193.5 325.5 193.5 C 315.681 194.494 305.681 194.827 295.5 194.5 C 295.172 183.321 295.505 172.321 296.5 161.5 Z" stroke-linecap="round" />
</g>
<g transform="matrix(1 0 0 1 664.81 484.26)"  >
<path style="stroke: none; stroke-width: 1; stroke-dasharray: none; stroke-linecap: butt; stroke-dashoffset: 0; stroke-linejoin: miter; stroke-miterlimit: 4; fill: rgb(159,159,159); fill-rule: evenodd; opacity: 0.416;" vector-effect="non-scaling-stroke"  transform=" translate(-374.5, -216)" d="M 373.5 214.5 C 374.906 214.973 375.573 215.973 375.5 217.5 C 374.094 217.027 373.427 216.027 373.5 214.5 Z" stroke-linecap="round" />
</g>
<g transform="matrix(1 0 0 1 602.25 507.2)"  >
<path style="stroke: none; stroke-width: 1; stroke-dasharray: none; stroke-linecap: butt; stroke-dashoffset: 0; stroke-linejoin: miter; stroke-miterlimit: 4; fill: rgb(178,178,178); fill-rule: evenodd; opacity: 0.176;" vector-effect="non-scaling-stroke"  transform=" translate(-311.94, -238.94)" d="M 328.5 223.5 C 317.833 223.5 307.167 223.5 296.5 223.5 C 296.5 234.167 296.5 244.833 296.5 255.5 C 295.505 244.679 295.172 233.679 295.5 222.5 C 306.679 222.172 317.679 222.505 328.5 223.5 Z" stroke-linecap="round" />
</g>
<g transform="matrix(1 0 0 1 518.36 551.76)"  >
<path style="stroke: none; stroke-width: 1; stroke-dasharray: none; stroke-linecap: butt; stroke-dashoffset: 0; stroke-linejoin: miter; stroke-miterlimit: 4; fill: rgb(185,185,185); fill-rule: evenodd; opacity: 0.278;" vector-effect="non-scaling-stroke"  transform=" translate(-228.04, -283.5)" d="M 213.5 251.5 C 213.833 251.5 214.167 251.5 214.5 251.5 C 214.5 272.5 214.5 293.5 214.5 314.5 C 223.5 314.5 232.5 314.5 241.5 314.5 C 241.5 313.5 241.5 312.5 241.5 311.5 C 242.434 312.568 242.768 313.901 242.5 315.5 C 232.833 315.5 223.167 315.5 213.5 315.5 C 213.5 294.167 213.5 272.833 213.5 251.5 Z" stroke-linecap="round" />
</g>
</svg>