<?xml version="1.0" encoding="UTF-8" standalone="no" ?>
<!DOCTYPE svg PUBLIC "-//W3C//DTD SVG 1.1//EN" "http://www.w3.org/Graphics/SVG/1.1/DTD/svg11.dtd">
<svg xmlns="http://www.w3.org/2000/svg" xmlns:xlink="http://www.w3.org/1999/xlink" version="1.1" width="1080" height="1080" viewBox="0 0 1080 1080" xml:space="preserve">
<desc>Created with Fabric.js 5.2.4</desc>
<defs>
</defs>
<g transform="matrix(1 0 0 1 540 540)" id="ef7d28ea-dfc3-415f-a0d8-d38309745357"  >
<rect style="stroke: none; stroke-width: 1; stroke-dasharray: none; stroke-linecap: butt; stroke-dashoffset: 0; stroke-linejoin: miter; stroke-miterlimit: 4; fill: rgb(255,255,255); fill-rule: nonzero; opacity: 1; visibility: hidden;" vector-effect="non-scaling-stroke"  x="-540" y="-540" rx="0" ry="0" width="1080" height="1080" />
</g>
<g transform="matrix(1 0 0 1 540 540)" id="c408362e-8e7d-4164-9b30-f1c839ebe075"  >
</g>
<g transform="matrix(1 0 0 1 540 568.53)"  >
<g style="" vector-effect="non-scaling-stroke"   >
		<g transform="matrix(1 0 0 1 71.5 -62.72)"  >
<path style="stroke: none; stroke-width: 1; stroke-dasharray: none; stroke-linecap: butt; stroke-dashoffset: 0; stroke-linejoin: miter; stroke-miterlimit: 4; fill: rgb(255,255,255); fill-rule: evenodd; opacity: 1;" vector-effect="non-scaling-stroke"  transform=" translate(-321.19, -209.02)" d="M 364.5 140.5 C 364.427 142.027 365.094 143.027 366.5 143.5 C 368.873 145.579 370.206 148.246 370.5 151.5 C 370.41 154.152 371.076 156.485 372.5 158.5 C 374.127 169.232 373.627 179.899 371 190.5 C 367.819 197.189 362.652 201.689 355.5 204 C 362.935 205.211 368.935 208.711 373.5 214.5 C 373.427 216.027 374.094 217.027 375.5 217.5 C 378.394 222.005 380.227 227.005 381 232.5 C 385.689 265.783 371.522 284.617 338.5 289 C 318.503 289.5 298.503 289.667 278.5 289.5 C 273.012 238.111 267.012 186.778 260.5 135.5 C 260.76 133.813 261.427 132.313 262.5 131 C 262.043 130.586 261.709 130.086 261.5 129.5 C 286.493 128.334 311.493 128.167 336.5 129 C 347.423 129.305 356.757 133.138 364.5 140.5 Z M 296.5 161.5 C 307.896 161.091 319.23 161.591 330.5 163 C 336.505 169.485 338.005 176.985 335 185.5 C 333.505 190.162 330.339 192.828 325.5 193.5 C 315.833 193.5 306.167 193.5 296.5 193.5 C 296.5 182.833 296.5 172.167 296.5 161.5 Z M 328.5 223.5 C 337.782 224.782 342.448 230.116 342.5 239.5 C 342.142 250.354 336.476 255.521 325.5 255 C 315.839 255.5 306.172 255.666 296.5 255.5 C 296.5 244.833 296.5 234.167 296.5 223.5 C 307.167 223.5 317.833 223.5 328.5 223.5 Z" stroke-linecap="round" />
</g>
		<g transform="matrix(1 0 0 1 115.81 -129.74)"  >
<path style="stroke: none; stroke-width: 1; stroke-dasharray: none; stroke-linecap: butt; stroke-dashoffset: 0; stroke-linejoin: miter; stroke-miterlimit: 4; fill: rgb(255,255,255); fill-rule: evenodd; opacity: 0.475;" vector-effect="non-scaling-stroke"  transform=" translate(-365.5, -142)" d="M 364.5 140.5 C 365.906 140.973 366.573 141.973 366.5 143.5 C 365.094 143.027 364.427 142.027 364.5 140.5 Z" stroke-linecap="round" />
</g>
		<g transform="matrix(1 0 0 1 -79.19 -37.3)"  >
<path style="stroke: none; stroke-width: 1; stroke-dasharray: none; stroke-linecap: butt; stroke-dashoffset: 0; stroke-linejoin: miter; stroke-miterlimit: 4; fill: rgb(255,255,255); fill-rule: evenodd; opacity: 0.372;" vector-effect="non-scaling-stroke"  transform=" translate(-170.5, -234.44)" d="M 223.5 154.5 C 220.5 154.5 217.5 154.5 214.5 154.5 C 214.5 174.833 214.5 195.167 214.5 215.5 C 195.5 215.5 176.5 215.5 157.5 215.5 C 157.5 195.167 157.5 174.833 157.5 154.5 C 144.5 154.5 131.5 154.5 118.5 154.5 C 118.5 207.833 118.5 261.167 118.5 314.5 C 131.5 314.5 144.5 314.5 157.5 314.5 C 157.5 293.167 157.5 271.833 157.5 250.5 C 176.674 250.17 195.674 250.503 214.5 251.5 C 214.167 251.5 213.833 251.5 213.5 251.5 C 195.167 251.5 176.833 251.5 158.5 251.5 C 158.5 272.833 158.5 294.167 158.5 315.5 C 144.833 315.5 131.167 315.5 117.5 315.5 C 117.5 261.5 117.5 207.5 117.5 153.5 C 131.167 153.5 144.833 153.5 158.5 153.5 C 158.5 173.833 158.5 194.167 158.5 214.5 C 176.833 214.5 195.167 214.5 213.5 214.5 C 213.5 194.167 213.5 173.833 213.5 153.5 C 217.042 153.187 220.375 153.521 223.5 154.5 Z" stroke-linecap="round" />
</g>
		<g transform="matrix(1 0 0 1 -69.69 -37.24)"  >
<path style="stroke: none; stroke-width: 1; stroke-dasharray: none; stroke-linecap: butt; stroke-dashoffset: 0; stroke-linejoin: miter; stroke-miterlimit: 4; fill: rgb(255,255,255); fill-rule: evenodd; opacity: 1;" vector-effect="non-scaling-stroke"  transform=" translate(-180, -234.5)" d="M 223.5 154.5 C 229.747 206.805 235.747 259.139 241.5 311.5 C 241.5 312.5 241.5 313.5 241.5 314.5 C 232.5 314.5 223.5 314.5 214.5 314.5 C 214.5 293.5 214.5 272.5 214.5 251.5 C 195.674 250.503 176.674 250.17 157.5 250.5 C 157.5 271.833 157.5 293.167 157.5 314.5 C 144.5 314.5 131.5 314.5 118.5 314.5 C 118.5 261.167 118.5 207.833 118.5 154.5 C 131.5 154.5 144.5 154.5 157.5 154.5 C 157.5 174.833 157.5 195.167 157.5 215.5 C 176.5 215.5 195.5 215.5 214.5 215.5 C 214.5 195.167 214.5 174.833 214.5 154.5 C 217.5 154.5 220.5 154.5 223.5 154.5 Z" stroke-linecap="round" />
</g>
		<g transform="matrix(1 0 0 1 121.81 -116.74)"  >
<path style="stroke: none; stroke-width: 1; stroke-dasharray: none; stroke-linecap: butt; stroke-dashoffset: 0; stroke-linejoin: miter; stroke-miterlimit: 4; fill: rgb(255,255,255); fill-rule: evenodd; opacity: 0.729;" vector-effect="non-scaling-stroke"  transform=" translate(-371.5, -155)" d="M 370.5 151.5 C 371.924 153.515 372.59 155.848 372.5 158.5 C 371.076 156.485 370.41 154.152 370.5 151.5 Z" stroke-linecap="round" />
</g>
		<g transform="matrix(1 0 0 1 60.75 -93.68)"  >
<path style="stroke: none; stroke-width: 1; stroke-dasharray: none; stroke-linecap: butt; stroke-dashoffset: 0; stroke-linejoin: miter; stroke-miterlimit: 4; fill: rgb(255,255,255); fill-rule: evenodd; opacity: 0.504;" vector-effect="non-scaling-stroke"  transform=" translate(-310.44, -178.06)" d="M 296.5 161.5 C 296.5 172.167 296.5 182.833 296.5 193.5 C 306.167 193.5 315.833 193.5 325.5 193.5 C 315.681 194.494 305.681 194.827 295.5 194.5 C 295.172 183.321 295.505 172.321 296.5 161.5 Z" stroke-linecap="round" />
</g>
		<g transform="matrix(1 0 0 1 124.81 -55.74)"  >
<path style="stroke: none; stroke-width: 1; stroke-dasharray: none; stroke-linecap: butt; stroke-dashoffset: 0; stroke-linejoin: miter; stroke-miterlimit: 4; fill: rgb(255,255,255); fill-rule: evenodd; opacity: 0.416;" vector-effect="non-scaling-stroke"  transform=" translate(-374.5, -216)" d="M 373.5 214.5 C 374.906 214.973 375.573 215.973 375.5 217.5 C 374.094 217.027 373.427 216.027 373.5 214.5 Z" stroke-linecap="round" />
</g>
		<g transform="matrix(1 0 0 1 62.25 -32.8)"  >
<path style="stroke: none; stroke-width: 1; stroke-dasharray: none; stroke-linecap: butt; stroke-dashoffset: 0; stroke-linejoin: miter; stroke-miterlimit: 4; fill: rgb(255,255,255); fill-rule: evenodd; opacity: 0.176;" vector-effect="non-scaling-stroke"  transform=" translate(-311.94, -238.94)" d="M 328.5 223.5 C 317.833 223.5 307.167 223.5 296.5 223.5 C 296.5 234.167 296.5 244.833 296.5 255.5 C 295.505 244.679 295.172 233.679 295.5 222.5 C 306.679 222.172 317.679 222.505 328.5 223.5 Z" stroke-linecap="round" />
</g>
		<g transform="matrix(1 0 0 1 -21.64 11.76)"  >
<path style="stroke: none; stroke-width: 1; stroke-dasharray: none; stroke-linecap: butt; stroke-dashoffset: 0; stroke-linejoin: miter; stroke-miterlimit: 4; fill: rgb(255,255,255); fill-rule: evenodd; opacity: 0.278;" vector-effect="non-scaling-stroke"  transform=" translate(-228.04, -283.5)" d="M 213.5 251.5 C 213.833 251.5 214.167 251.5 214.5 251.5 C 214.5 272.5 214.5 293.5 214.5 314.5 C 223.5 314.5 232.5 314.5 241.5 314.5 C 241.5 313.5 241.5 312.5 241.5 311.5 C 242.434 312.568 242.768 313.901 242.5 315.5 C 232.833 315.5 223.167 315.5 213.5 315.5 C 213.5 294.167 213.5 272.833 213.5 251.5 Z" stroke-linecap="round" />
</g>
		<g transform="matrix(1 0 0 1 -28.17 78.08)"  >
<path style="stroke: none; stroke-width: 1; stroke-dasharray: none; stroke-linecap: butt; stroke-dashoffset: 0; stroke-linejoin: miter; stroke-miterlimit: 4; fill: rgb(255,255,255); fill-rule: evenodd; opacity: 0.999;" vector-effect="non-scaling-stroke"  transform=" translate(-221.52, -349.82)" d="M 219.5 347.5 C 223.138 346.737 224.638 348.07 224 351.5 C 219.421 353.418 217.921 352.085 219.5 347.5 Z" stroke-linecap="round" />
</g>
		<g transform="matrix(1 0 0 1 -87.19 82.76)"  >
<path style="stroke: none; stroke-width: 1; stroke-dasharray: none; stroke-linecap: butt; stroke-dashoffset: 0; stroke-linejoin: miter; stroke-miterlimit: 4; fill: rgb(255,255,255); fill-rule: evenodd; opacity: 0.471;" vector-effect="non-scaling-stroke"  transform=" translate(-162.5, -354.5)" d="M 165.5 355.5 C 163.5 354.167 161.5 354.167 159.5 355.5 C 159.97 354.307 160.97 353.64 162.5 353.5 C 164.03 353.64 165.03 354.307 165.5 355.5 Z" stroke-linecap="round" />
</g>
		<g transform="matrix(1 0 0 1 -122.19 91.76)"  >
<path style="stroke: none; stroke-width: 1; stroke-dasharray: none; stroke-linecap: butt; stroke-dashoffset: 0; stroke-linejoin: miter; stroke-miterlimit: 4; fill: rgb(255,255,255); fill-rule: evenodd; opacity: 1;" vector-effect="non-scaling-stroke"  transform=" translate(-127.5, -363.5)" d="M 131.5 360.5 C 131.5 358.5 131.5 356.5 131.5 354.5 C 132.833 354.5 134.167 354.5 135.5 354.5 C 135.5 360.5 135.5 366.5 135.5 372.5 C 134.167 372.5 132.833 372.5 131.5 372.5 C 131.5 370.167 131.5 367.833 131.5 365.5 C 128.833 365.5 126.167 365.5 123.5 365.5 C 123.5 367.833 123.5 370.167 123.5 372.5 C 122.167 372.5 120.833 372.5 119.5 372.5 C 119.5 366.5 119.5 360.5 119.5 354.5 C 120.5 354.5 121.5 354.5 122.5 354.5 C 122.5 356.833 122.5 359.167 122.5 361.5 C 125.713 361.81 128.713 361.477 131.5 360.5 Z" stroke-linecap="round" />
</g>
		<g transform="matrix(1 0 0 1 -87.19 91.76)"  >
<path style="stroke: none; stroke-width: 1; stroke-dasharray: none; stroke-linecap: butt; stroke-dashoffset: 0; stroke-linejoin: miter; stroke-miterlimit: 4; fill: rgb(255,255,255); fill-rule: evenodd; opacity: 0.999;" vector-effect="non-scaling-stroke"  transform=" translate(-162.5, -363.5)" d="M 165.5 355.5 C 168.264 360.863 170.93 366.363 173.5 372 C 172.5 372.167 171.5 372.333 170.5 372.5 C 168.97 372.36 167.97 371.693 167.5 370.5 C 166.306 369.223 164.64 368.556 162.5 368.5 C 160.36 368.556 158.694 369.223 157.5 370.5 C 157.03 371.693 156.03 372.36 154.5 372.5 C 153.5 372.333 152.5 372.167 151.5 372 C 154.07 366.363 156.736 360.863 159.5 355.5 C 161.5 354.167 163.5 354.167 165.5 355.5 Z M 163.5 360.5 C 163.263 361.791 163.596 362.791 164.5 363.5 C 163.167 364.833 161.833 364.833 160.5 363.5 C 161.338 363.158 161.672 362.492 161.5 361.5 C 162.167 361.167 162.833 360.833 163.5 360.5 Z" stroke-linecap="round" />
</g>
		<g transform="matrix(1 0 0 1 -53.69 91.76)"  >
<path style="stroke: none; stroke-width: 1; stroke-dasharray: none; stroke-linecap: butt; stroke-dashoffset: 0; stroke-linejoin: miter; stroke-miterlimit: 4; fill: rgb(255,255,255); fill-rule: evenodd; opacity: 0.997;" vector-effect="non-scaling-stroke"  transform=" translate(-196, -363.5)" d="M 193.5 354.5 C 193.5 359.167 193.5 363.833 193.5 368.5 C 196.287 369.477 199.287 369.81 202.5 369.5 C 202.5 370.5 202.5 371.5 202.5 372.5 C 198.167 372.5 193.833 372.5 189.5 372.5 C 189.5 366.5 189.5 360.5 189.5 354.5 C 190.833 354.5 192.167 354.5 193.5 354.5 Z" stroke-linecap="round" />
</g>
		<g transform="matrix(1 0 0 1 -0.69 91.76)"  >
<path style="stroke: none; stroke-width: 1; stroke-dasharray: none; stroke-linecap: butt; stroke-dashoffset: 0; stroke-linejoin: miter; stroke-miterlimit: 4; fill: rgb(255,255,255); fill-rule: evenodd; opacity: 1;" vector-effect="non-scaling-stroke"  transform=" translate(-249, -363.5)" d="M 242.5 354.5 C 243.833 354.5 245.167 354.5 246.5 354.5 C 246.181 359.363 246.514 364.03 247.5 368.5 C 249.948 369.473 252.615 369.806 255.5 369.5 C 255.5 370.5 255.5 371.5 255.5 372.5 C 251.167 372.5 246.833 372.5 242.5 372.5 C 242.5 366.5 242.5 360.5 242.5 354.5 Z" stroke-linecap="round" />
</g>
		<g transform="matrix(1 0 0 1 52.91 91.4)"  >
<path style="stroke: none; stroke-width: 1; stroke-dasharray: none; stroke-linecap: butt; stroke-dashoffset: 0; stroke-linejoin: miter; stroke-miterlimit: 4; fill: rgb(255,255,255); fill-rule: evenodd; opacity: 1;" vector-effect="non-scaling-stroke"  transform=" translate(-302.6, -363.14)" d="M 299.5 353.5 C 304.226 352.617 308.226 353.784 311.5 357 C 309.109 360.06 306.442 360.227 303.5 357.5 C 297.745 360.105 297.078 363.605 301.5 368 C 304.419 368.54 307.086 368.207 309.5 367 C 312.167 368.667 312.167 370.333 309.5 372 C 297.519 375.353 292.353 370.853 294 358.5 C 295.406 356.256 297.239 354.59 299.5 353.5 Z" stroke-linecap="round" />
</g>
		<g transform="matrix(1 0 0 1 86.81 91.26)"  >
<path style="stroke: none; stroke-width: 1; stroke-dasharray: none; stroke-linecap: butt; stroke-dashoffset: 0; stroke-linejoin: miter; stroke-miterlimit: 4; fill: rgb(255,255,255); fill-rule: evenodd; opacity: 0.999;" vector-effect="non-scaling-stroke"  transform=" translate(-336.5, -363)" d="M 340.5 369.5 C 339.207 368.842 337.707 368.508 336 368.5 C 334.014 368.569 332.514 369.235 331.5 370.5 C 331.03 371.693 330.03 372.36 328.5 372.5 C 327.5 372.333 326.5 372.167 325.5 372 C 328.295 366.242 330.962 360.408 333.5 354.5 C 335.5 353.167 337.5 353.167 339.5 354.5 C 342.038 360.408 344.705 366.242 347.5 372 C 345.5 372.667 343.5 372.667 341.5 372 C 340.748 371.329 340.414 370.496 340.5 369.5 Z M 338.5 364.5 C 336.901 364.768 335.568 364.434 334.5 363.5 C 335.987 359.859 337.321 360.192 338.5 364.5 Z" stroke-linecap="round" />
</g>
		<g transform="matrix(1 0 0 1 121.81 91.79)"  >
<path style="stroke: none; stroke-width: 1; stroke-dasharray: none; stroke-linecap: butt; stroke-dashoffset: 0; stroke-linejoin: miter; stroke-miterlimit: 4; fill: rgb(255,255,255); fill-rule: evenodd; opacity: 1;" vector-effect="non-scaling-stroke"  transform=" translate(-371.5, -363.53)" d="M 367.5 354.5 C 367.427 356.027 368.094 357.027 369.5 357.5 C 370.833 358.167 371.833 359.167 372.5 360.5 C 372.427 362.027 373.094 363.027 374.5 363.5 C 374.56 364.043 374.893 364.376 375.5 364.5 C 376.487 361.232 376.82 357.898 376.5 354.5 C 377.5 354.5 378.5 354.5 379.5 354.5 C 379.5 360.5 379.5 366.5 379.5 372.5 C 378.127 372.657 376.793 372.49 375.5 372 C 373.353 368.885 370.853 366.052 368 363.5 C 367.502 366.482 367.335 369.482 367.5 372.5 C 366.167 372.5 364.833 372.5 363.5 372.5 C 363.5 366.5 363.5 360.5 363.5 354.5 C 364.833 354.5 366.167 354.5 367.5 354.5 Z" stroke-linecap="round" />
</g>
		<g transform="matrix(1 0 0 1 -124.75 91.26)"  >
<path style="stroke: none; stroke-width: 1; stroke-dasharray: none; stroke-linecap: butt; stroke-dashoffset: 0; stroke-linejoin: miter; stroke-miterlimit: 4; fill: rgb(255,255,255); fill-rule: evenodd; opacity: 0.569;" vector-effect="non-scaling-stroke"  transform=" translate(-124.94, -363)" d="M 131.5 360.5 C 128.713 361.477 125.713 361.81 122.5 361.5 C 122.5 359.167 122.5 356.833 122.5 354.5 C 121.5 354.5 120.5 354.5 119.5 354.5 C 119.5 360.5 119.5 366.5 119.5 372.5 C 118.51 366.355 118.177 360.022 118.5 353.5 C 120.167 353.5 121.833 353.5 123.5 353.5 C 123.5 355.833 123.5 358.167 123.5 360.5 C 126.167 360.5 128.833 360.5 131.5 360.5 Z" stroke-linecap="round" />
</g>
		<g transform="matrix(1 0 0 1 -28.19 91.26)"  >
<path style="stroke: none; stroke-width: 1; stroke-dasharray: none; stroke-linecap: butt; stroke-dashoffset: 0; stroke-linejoin: miter; stroke-miterlimit: 4; fill: rgb(255,255,255); fill-rule: evenodd; opacity: 0.214;" vector-effect="non-scaling-stroke"  transform=" translate(-221.5, -363)" d="M 223.5 372.5 C 223.5 366.5 223.5 360.5 223.5 354.5 C 222.167 354.5 220.833 354.5 219.5 354.5 C 219.5 360.5 219.5 366.5 219.5 372.5 C 218.51 366.355 218.177 360.022 218.5 353.5 C 220.5 353.5 222.5 353.5 224.5 353.5 C 224.823 360.022 224.49 366.355 223.5 372.5 Z" stroke-linecap="round" />
</g>
		<g transform="matrix(1 0 0 1 -28.19 91.76)"  >
<path style="stroke: none; stroke-width: 1; stroke-dasharray: none; stroke-linecap: butt; stroke-dashoffset: 0; stroke-linejoin: miter; stroke-miterlimit: 4; fill: rgb(255,255,255); fill-rule: evenodd; opacity: 1;" vector-effect="non-scaling-stroke"  transform=" translate(-221.5, -363.5)" d="M 223.5 372.5 C 222.167 372.5 220.833 372.5 219.5 372.5 C 219.5 366.5 219.5 360.5 219.5 354.5 C 220.833 354.5 222.167 354.5 223.5 354.5 C 223.5 360.5 223.5 366.5 223.5 372.5 Z" stroke-linecap="round" />
</g>
		<g transform="matrix(1 0 0 1 118.81 84.26)"  >
<path style="stroke: none; stroke-width: 1; stroke-dasharray: none; stroke-linecap: butt; stroke-dashoffset: 0; stroke-linejoin: miter; stroke-miterlimit: 4; fill: rgb(255,255,255); fill-rule: evenodd; opacity: 0.804;" vector-effect="non-scaling-stroke"  transform=" translate(-368.5, -356)" d="M 367.5 354.5 C 368.906 354.973 369.573 355.973 369.5 357.5 C 368.094 357.027 367.427 356.027 367.5 354.5 Z" stroke-linecap="round" />
</g>
		<g transform="matrix(1 0 0 1 -4.69 89.21)"  >
<path style="stroke: none; stroke-width: 1; stroke-dasharray: none; stroke-linecap: butt; stroke-dashoffset: 0; stroke-linejoin: miter; stroke-miterlimit: 4; fill: rgb(255,255,255); fill-rule: evenodd; opacity: 0.471;" vector-effect="non-scaling-stroke"  transform=" translate(-245, -360.95)" d="M 242.5 354.5 C 243.919 353.549 245.585 353.216 247.5 353.5 C 247.5 358.5 247.5 363.5 247.5 368.5 C 246.514 364.03 246.181 359.363 246.5 354.5 C 245.167 354.5 243.833 354.5 242.5 354.5 Z" stroke-linecap="round" />
</g>
		<g transform="matrix(1 0 0 1 -115.63 91.21)"  >
<path style="stroke: none; stroke-width: 1; stroke-dasharray: none; stroke-linecap: butt; stroke-dashoffset: 0; stroke-linejoin: miter; stroke-miterlimit: 4; fill: rgb(255,255,255); fill-rule: evenodd; opacity: 0.373;" vector-effect="non-scaling-stroke"  transform=" translate(-134.06, -362.95)" d="M 131.5 354.5 C 132.919 353.549 134.585 353.216 136.5 353.5 C 136.823 360.022 136.49 366.355 135.5 372.5 C 135.5 366.5 135.5 360.5 135.5 354.5 C 134.167 354.5 132.833 354.5 131.5 354.5 Z" stroke-linecap="round" />
</g>
		<g transform="matrix(1 0 0 1 -58.75 91.21)"  >
<path style="stroke: none; stroke-width: 1; stroke-dasharray: none; stroke-linecap: butt; stroke-dashoffset: 0; stroke-linejoin: miter; stroke-miterlimit: 4; fill: rgb(255,255,255); fill-rule: evenodd; opacity: 0.31;" vector-effect="non-scaling-stroke"  transform=" translate(-190.94, -362.95)" d="M 193.5 354.5 C 192.167 354.5 190.833 354.5 189.5 354.5 C 189.5 360.5 189.5 366.5 189.5 372.5 C 188.51 366.355 188.177 360.022 188.5 353.5 C 190.415 353.216 192.081 353.549 193.5 354.5 Z" stroke-linecap="round" />
</g>
		<g transform="matrix(1 0 0 1 -87.19 88.89)"  >
<path style="stroke: none; stroke-width: 1; stroke-dasharray: none; stroke-linecap: butt; stroke-dashoffset: 0; stroke-linejoin: miter; stroke-miterlimit: 4; fill: rgb(255,255,255); fill-rule: evenodd; opacity: 0.184;" vector-effect="non-scaling-stroke"  transform=" translate(-162.5, -360.63)" d="M 163.5 360.5 C 162.833 360.833 162.167 361.167 161.5 361.5 C 161.711 359.576 162.377 359.243 163.5 360.5 Z" stroke-linecap="round" />
</g>
		<g transform="matrix(1 0 0 1 123.81 90.26)"  >
<path style="stroke: none; stroke-width: 1; stroke-dasharray: none; stroke-linecap: butt; stroke-dashoffset: 0; stroke-linejoin: miter; stroke-miterlimit: 4; fill: rgb(255,255,255); fill-rule: evenodd; opacity: 0.741;" vector-effect="non-scaling-stroke"  transform=" translate(-373.5, -362)" d="M 372.5 360.5 C 373.906 360.973 374.573 361.973 374.5 363.5 C 373.094 363.027 372.427 362.027 372.5 360.5 Z" stroke-linecap="round" />
</g>
		<g transform="matrix(1 0 0 1 127.87 91.26)"  >
<path style="stroke: none; stroke-width: 1; stroke-dasharray: none; stroke-linecap: butt; stroke-dashoffset: 0; stroke-linejoin: miter; stroke-miterlimit: 4; fill: rgb(255,255,255); fill-rule: evenodd; opacity: 0.631;" vector-effect="non-scaling-stroke"  transform=" translate(-377.56, -363)" d="M 379.5 372.5 C 379.5 366.5 379.5 360.5 379.5 354.5 C 378.5 354.5 377.5 354.5 376.5 354.5 C 376.82 357.898 376.487 361.232 375.5 364.5 C 374.893 364.376 374.56 364.043 374.5 363.5 C 375.479 360.375 375.813 357.042 375.5 353.5 C 377.167 353.5 378.833 353.5 380.5 353.5 C 380.823 360.022 380.49 366.355 379.5 372.5 Z" stroke-linecap="round" />
</g>
		<g transform="matrix(1 0 0 1 -87.19 92.76)"  >
<path style="stroke: none; stroke-width: 1; stroke-dasharray: none; stroke-linecap: butt; stroke-dashoffset: 0; stroke-linejoin: miter; stroke-miterlimit: 4; fill: rgb(255,255,255); fill-rule: evenodd; opacity: 0.194;" vector-effect="non-scaling-stroke"  transform=" translate(-162.5, -364.5)" d="M 160.5 363.5 C 161.833 364.833 163.167 364.833 164.5 363.5 C 165.043 363.56 165.376 363.893 165.5 364.5 C 163.5 365.833 161.5 365.833 159.5 364.5 C 159.624 363.893 159.957 363.56 160.5 363.5 Z" stroke-linecap="round" />
</g>
		<g transform="matrix(1 0 0 1 86.4 92.77)"  >
<path style="stroke: none; stroke-width: 1; stroke-dasharray: none; stroke-linecap: butt; stroke-dashoffset: 0; stroke-linejoin: miter; stroke-miterlimit: 4; fill: rgb(255,255,255); fill-rule: evenodd; opacity: 0.196;" vector-effect="non-scaling-stroke"  transform=" translate(-336.08, -364.51)" d="M 334.5 363.5 C 335.568 364.434 336.901 364.768 338.5 364.5 C 339.009 365.259 338.343 365.592 336.5 365.5 C 335.5 365.167 334.5 364.833 333.5 364.5 C 333.624 363.893 333.957 363.56 334.5 363.5 Z" stroke-linecap="round" />
</g>
		<g transform="matrix(1 0 0 1 -87.19 97.76)"  >
<path style="stroke: none; stroke-width: 1; stroke-dasharray: none; stroke-linecap: butt; stroke-dashoffset: 0; stroke-linejoin: miter; stroke-miterlimit: 4; fill: rgb(255,255,255); fill-rule: evenodd; opacity: 0.045;" vector-effect="non-scaling-stroke"  transform=" translate(-162.5, -369.5)" d="M 167.5 370.5 C 164.167 369.167 160.833 369.167 157.5 370.5 C 158.694 369.223 160.36 368.556 162.5 368.5 C 164.64 368.556 166.306 369.223 167.5 370.5 Z" stroke-linecap="round" />
</g>
		<g transform="matrix(1 0 0 1 -51.14 98.76)"  >
<path style="stroke: none; stroke-width: 1; stroke-dasharray: none; stroke-linecap: butt; stroke-dashoffset: 0; stroke-linejoin: miter; stroke-miterlimit: 4; fill: rgb(255,255,255); fill-rule: evenodd; opacity: 0.486;" vector-effect="non-scaling-stroke"  transform=" translate(-198.54, -370.5)" d="M 193.5 368.5 C 196.833 368.5 200.167 368.5 203.5 368.5 C 203.768 370.099 203.434 371.432 202.5 372.5 C 202.5 371.5 202.5 370.5 202.5 369.5 C 199.287 369.81 196.287 369.477 193.5 368.5 Z" stroke-linecap="round" />
</g>
		<g transform="matrix(1 0 0 1 2.36 98.76)"  >
<path style="stroke: none; stroke-width: 1; stroke-dasharray: none; stroke-linecap: butt; stroke-dashoffset: 0; stroke-linejoin: miter; stroke-miterlimit: 4; fill: rgb(255,255,255); fill-rule: evenodd; opacity: 0.486;" vector-effect="non-scaling-stroke"  transform=" translate(-252.04, -370.5)" d="M 247.5 368.5 C 250.5 368.5 253.5 368.5 256.5 368.5 C 256.768 370.099 256.434 371.432 255.5 372.5 C 255.5 371.5 255.5 370.5 255.5 369.5 C 252.615 369.806 249.948 369.473 247.5 368.5 Z" stroke-linecap="round" />
</g>
		<g transform="matrix(1 0 0 1 86.31 97.76)"  >
<path style="stroke: none; stroke-width: 1; stroke-dasharray: none; stroke-linecap: butt; stroke-dashoffset: 0; stroke-linejoin: miter; stroke-miterlimit: 4; fill: rgb(255,255,255); fill-rule: evenodd; opacity: 0.043;" vector-effect="non-scaling-stroke"  transform=" translate(-336, -369.5)" d="M 340.5 369.5 C 337.391 369.264 334.391 369.597 331.5 370.5 C 332.514 369.235 334.014 368.569 336 368.5 C 337.707 368.508 339.207 368.842 340.5 369.5 Z" stroke-linecap="round" />
</g>
		<g transform="matrix(1 0 0 1 115.25 91.21)"  >
<path style="stroke: none; stroke-width: 1; stroke-dasharray: none; stroke-linecap: butt; stroke-dashoffset: 0; stroke-linejoin: miter; stroke-miterlimit: 4; fill: rgb(255,255,255); fill-rule: evenodd; opacity: 0.308;" vector-effect="non-scaling-stroke"  transform=" translate(-364.94, -362.95)" d="M 367.5 354.5 C 366.167 354.5 364.833 354.5 363.5 354.5 C 363.5 360.5 363.5 366.5 363.5 372.5 C 362.51 366.355 362.177 360.022 362.5 353.5 C 364.415 353.216 366.081 353.549 367.5 354.5 Z" stroke-linecap="round" />
</g>
		<g transform="matrix(1 0 0 1 28.81 114.76)"  >
<path style="stroke: none; stroke-width: 1; stroke-dasharray: none; stroke-linecap: butt; stroke-dashoffset: 0; stroke-linejoin: miter; stroke-miterlimit: 4; fill: rgb(255,255,255); fill-rule: evenodd; opacity: 0.635;" vector-effect="non-scaling-stroke"  transform=" translate(-278.5, -386.5)" d="M 276.5 384.5 C 277.833 384.5 279.167 384.5 280.5 384.5 C 280.5 385.833 280.5 387.167 280.5 388.5 C 279.167 388.5 277.833 388.5 276.5 388.5 C 276.5 387.167 276.5 385.833 276.5 384.5 Z" stroke-linecap="round" />
</g>
		<g transform="matrix(1 0 0 1 34.05 114.76)"  >
<path style="stroke: none; stroke-width: 1; stroke-dasharray: none; stroke-linecap: butt; stroke-dashoffset: 0; stroke-linejoin: miter; stroke-miterlimit: 4; fill: rgb(255,255,255); fill-rule: evenodd; opacity: 1;" vector-effect="non-scaling-stroke"  transform=" translate(-283.74, -386.5)" d="M 282.5 384.5 C 285.694 384.176 286.694 385.342 285.5 388 C 284.207 388.49 282.873 388.657 281.5 388.5 C 281.433 387.041 281.766 385.708 282.5 384.5 Z" stroke-linecap="round" />
</g>
		<g transform="matrix(1 0 0 1 -65.19 118.76)"  >
<path style="stroke: none; stroke-width: 1; stroke-dasharray: none; stroke-linecap: butt; stroke-dashoffset: 0; stroke-linejoin: miter; stroke-miterlimit: 4; fill: rgb(255,255,255); fill-rule: evenodd; opacity: 0.471;" vector-effect="non-scaling-stroke"  transform=" translate(-184.5, -390.5)" d="M 187.5 391.5 C 185.5 390.167 183.5 390.167 181.5 391.5 C 181.97 390.307 182.97 389.64 184.5 389.5 C 186.03 389.64 187.03 390.307 187.5 391.5 Z" stroke-linecap="round" />
</g>
		<g transform="matrix(1 0 0 1 -1.69 119.76)"  >
<path style="stroke: none; stroke-width: 1; stroke-dasharray: none; stroke-linecap: butt; stroke-dashoffset: 0; stroke-linejoin: miter; stroke-miterlimit: 4; fill: rgb(255,255,255); fill-rule: evenodd; opacity: 0.471;" vector-effect="non-scaling-stroke"  transform=" translate(-248, -391.5)" d="M 255.5 393.5 C 255.5 392.5 255.5 391.5 255.5 390.5 C 250.5 390.5 245.5 390.5 240.5 390.5 C 240.5 391.5 240.5 392.5 240.5 393.5 C 239.566 392.432 239.232 391.099 239.5 389.5 C 245.167 389.5 250.833 389.5 256.5 389.5 C 256.768 391.099 256.434 392.432 255.5 393.5 Z" stroke-linecap="round" />
</g>
		<g transform="matrix(1 0 0 1 106.81 119.27)"  >
<path style="stroke: none; stroke-width: 1; stroke-dasharray: none; stroke-linecap: butt; stroke-dashoffset: 0; stroke-linejoin: miter; stroke-miterlimit: 4; fill: rgb(255,255,255); fill-rule: evenodd; opacity: 0.475;" vector-effect="non-scaling-stroke"  transform=" translate(-356.5, -391.02)" d="M 353.5 390.5 C 355.364 389.207 357.364 389.207 359.5 390.5 C 359.145 391.522 358.478 392.189 357.5 392.5 C 356.817 390.824 355.483 390.157 353.5 390.5 Z" stroke-linecap="round" />
</g>
		<g transform="matrix(1 0 0 1 -101.75 127.2)"  >
<path style="stroke: none; stroke-width: 1; stroke-dasharray: none; stroke-linecap: butt; stroke-dashoffset: 0; stroke-linejoin: miter; stroke-miterlimit: 4; fill: rgb(255,255,255); fill-rule: evenodd; opacity: 0.566;" vector-effect="non-scaling-stroke"  transform=" translate(-147.94, -398.94)" d="M 154.5 390.5 C 150.5 390.5 146.5 390.5 142.5 390.5 C 142.5 396.5 142.5 402.5 142.5 408.5 C 141.51 402.355 141.177 396.022 141.5 389.5 C 146.032 389.182 150.366 389.515 154.5 390.5 Z" stroke-linecap="round" />
</g>
		<g transform="matrix(1 0 0 1 -98.7 127.81)"  >
<path style="stroke: none; stroke-width: 1; stroke-dasharray: none; stroke-linecap: butt; stroke-dashoffset: 0; stroke-linejoin: miter; stroke-miterlimit: 4; fill: rgb(255,255,255); fill-rule: evenodd; opacity: 0.999;" vector-effect="non-scaling-stroke"  transform=" translate(-150.99, -399.55)" d="M 154.5 390.5 C 158.33 391.689 159.33 394.022 157.5 397.5 C 155.067 398.548 155.067 399.214 157.5 399.5 C 160.134 402.088 160.134 404.754 157.5 407.5 C 152.565 408.448 147.565 408.781 142.5 408.5 C 142.5 402.5 142.5 396.5 142.5 390.5 C 146.5 390.5 150.5 390.5 154.5 390.5 Z M 146.5 393.5 C 155.554 394.461 155.554 395.795 146.5 397.5 C 146.5 396.167 146.5 394.833 146.5 393.5 Z M 153.5 401.5 C 154.833 402.5 154.833 403.5 153.5 404.5 C 151.167 404.5 148.833 404.5 146.5 404.5 C 146.5 403.5 146.5 402.5 146.5 401.5 C 148.833 401.5 151.167 401.5 153.5 401.5 Z" stroke-linecap="round" />
</g>
		<g transform="matrix(1 0 0 1 -65.19 127.76)"  >
<path style="stroke: none; stroke-width: 1; stroke-dasharray: none; stroke-linecap: butt; stroke-dashoffset: 0; stroke-linejoin: miter; stroke-miterlimit: 4; fill: rgb(255,255,255); fill-rule: evenodd; opacity: 0.999;" vector-effect="non-scaling-stroke"  transform=" translate(-184.5, -399.5)" d="M 187.5 391.5 C 190.264 396.863 192.93 402.363 195.5 408 C 193.5 408.667 191.5 408.667 189.5 408 C 188.748 407.329 188.414 406.496 188.5 405.5 C 187.207 404.842 185.707 404.508 184 404.5 C 182.014 404.569 180.514 405.235 179.5 406.5 C 179.03 407.693 178.03 408.36 176.5 408.5 C 175.5 408.333 174.5 408.167 173.5 408 C 176.07 402.363 178.736 396.863 181.5 391.5 C 183.5 390.167 185.5 390.167 187.5 391.5 Z M 186.5 400.5 C 184.901 400.768 183.568 400.434 182.5 399.5 C 183.987 395.859 185.321 396.192 186.5 400.5 Z" stroke-linecap="round" />
</g>
		<g transform="matrix(1 0 0 1 -32.2 130.54)"  >
<path style="stroke: none; stroke-width: 1; stroke-dasharray: none; stroke-linecap: butt; stroke-dashoffset: 0; stroke-linejoin: miter; stroke-miterlimit: 4; fill: rgb(255,255,255); fill-rule: evenodd; opacity: 1;" vector-effect="non-scaling-stroke"  transform=" translate(-217.48, -402.28)" d="M 216.5 393.5 C 214.448 394.053 214.115 395.053 215.5 396.5 C 219.13 396.765 222.297 398.098 225 400.5 C 226.327 404.853 224.827 407.52 220.5 408.5 C 217.833 409.167 217.833 409.833 220.5 410.5 C 221.529 412.153 221.029 413.486 219 414.5 C 214.086 415.841 212.92 414.508 215.5 410.5 C 213.234 409.284 211.234 407.784 209.5 406 C 210.289 403.572 211.623 403.072 213.5 404.5 C 214.449 405.152 215.615 405.486 217 405.5 C 218.681 405.392 219.848 404.725 220.5 403.5 C 218.429 402.055 216.096 401.055 213.5 400.5 C 213.027 399.094 212.027 398.427 210.5 398.5 C 209.12 395.83 209.453 393.33 211.5 391 C 215.039 389.496 218.705 389.163 222.5 390 C 224.592 390.953 224.925 392.286 223.5 394 C 221.203 394.018 218.869 393.851 216.5 393.5 Z" stroke-linecap="round" />
</g>
		<g transform="matrix(1 0 0 1 -1.69 127.76)"  >
<path style="stroke: none; stroke-width: 1; stroke-dasharray: none; stroke-linecap: butt; stroke-dashoffset: 0; stroke-linejoin: miter; stroke-miterlimit: 4; fill: rgb(255,255,255); fill-rule: evenodd; opacity: 1;" vector-effect="non-scaling-stroke"  transform=" translate(-248, -399.5)" d="M 255.5 393.5 C 254.081 394.451 252.415 394.784 250.5 394.5 C 250.5 399.167 250.5 403.833 250.5 408.5 C 249.167 408.5 247.833 408.5 246.5 408.5 C 246.5 403.5 246.5 398.5 246.5 393.5 C 244.5 393.5 242.5 393.5 240.5 393.5 C 240.5 392.5 240.5 391.5 240.5 390.5 C 245.5 390.5 250.5 390.5 255.5 390.5 C 255.5 391.5 255.5 392.5 255.5 393.5 Z" stroke-linecap="round" />
</g>
		<g transform="matrix(1 0 0 1 31.84 128.23)"  >
<path style="stroke: none; stroke-width: 1; stroke-dasharray: none; stroke-linecap: butt; stroke-dashoffset: 0; stroke-linejoin: miter; stroke-miterlimit: 4; fill: rgb(255,255,255); fill-rule: evenodd; opacity: 1;" vector-effect="non-scaling-stroke"  transform=" translate(-281.53, -399.97)" d="M 277.5 402.5 C 279.962 405.053 282.295 405.053 284.5 402.5 C 285.483 398.702 285.817 394.702 285.5 390.5 C 286.833 390.5 288.167 390.5 289.5 390.5 C 289.666 395.511 289.499 400.511 289 405.5 C 285.178 409.721 280.678 410.554 275.5 408 C 274.177 407.184 273.511 406.017 273.5 404.5 C 273.5 399.833 273.5 395.167 273.5 390.5 C 274.5 390.5 275.5 390.5 276.5 390.5 C 276.183 394.702 276.517 398.702 277.5 402.5 Z" stroke-linecap="round" />
</g>
		<g transform="matrix(1 0 0 1 25.25 125.26)"  >
<path style="stroke: none; stroke-width: 1; stroke-dasharray: none; stroke-linecap: butt; stroke-dashoffset: 0; stroke-linejoin: miter; stroke-miterlimit: 4; fill: rgb(255,255,255); fill-rule: evenodd; opacity: 0.551;" vector-effect="non-scaling-stroke"  transform=" translate(-274.94, -397)" d="M 277.5 402.5 C 276.517 398.702 276.183 394.702 276.5 390.5 C 275.5 390.5 274.5 390.5 273.5 390.5 C 273.5 395.167 273.5 399.833 273.5 404.5 C 272.513 399.695 272.179 394.695 272.5 389.5 C 274.167 389.5 275.833 389.5 277.5 389.5 C 277.5 393.833 277.5 398.167 277.5 402.5 Z" stroke-linecap="round" />
</g>
		<g transform="matrix(1 0 0 1 66.82 127.76)"  >
<path style="stroke: none; stroke-width: 1; stroke-dasharray: none; stroke-linecap: butt; stroke-dashoffset: 0; stroke-linejoin: miter; stroke-miterlimit: 4; fill: rgb(255,255,255); fill-rule: evenodd; opacity: 0.999;" vector-effect="non-scaling-stroke"  transform=" translate(-316.51, -399.5)" d="M 319.5 390.5 C 321.582 390.624 323.082 391.624 324 393.5 C 325.183 397.274 324.349 400.441 321.5 403 C 325.938 407.719 324.938 409.219 318.5 407.5 C 317.491 404.663 315.491 403.33 312.5 403.5 C 312.5 405.167 312.5 406.833 312.5 408.5 C 311.167 408.5 309.833 408.5 308.5 408.5 C 308.5 402.5 308.5 396.5 308.5 390.5 C 312.167 390.5 315.833 390.5 319.5 390.5 Z M 312.5 394.5 C 314.527 394.338 316.527 394.505 318.5 395 C 319.727 396.587 319.394 397.921 317.5 399 C 315.866 399.494 314.199 399.66 312.5 399.5 C 312.5 397.833 312.5 396.167 312.5 394.5 Z" stroke-linecap="round" />
</g>
		<g transform="matrix(1 0 0 1 95.26 127.26)"  >
<path style="stroke: none; stroke-width: 1; stroke-dasharray: none; stroke-linecap: butt; stroke-dashoffset: 0; stroke-linejoin: miter; stroke-miterlimit: 4; fill: rgb(255,255,255); fill-rule: evenodd; opacity: 0.565;" vector-effect="non-scaling-stroke"  transform=" translate(-344.94, -399)" d="M 348.5 395.5 C 348.585 396.995 347.919 397.995 346.5 398.5 C 345.52 395.914 345.187 393.247 345.5 390.5 C 344.5 390.5 343.5 390.5 342.5 390.5 C 342.5 396.5 342.5 402.5 342.5 408.5 C 341.51 402.355 341.177 396.022 341.5 389.5 C 343.167 389.5 344.833 389.5 346.5 389.5 C 346.337 391.857 346.503 394.19 347 396.5 C 347.383 395.944 347.883 395.611 348.5 395.5 Z" stroke-linecap="round" />
</g>
		<g transform="matrix(1 0 0 1 101.31 127.72)"  >
<path style="stroke: none; stroke-width: 1; stroke-dasharray: none; stroke-linecap: butt; stroke-dashoffset: 0; stroke-linejoin: miter; stroke-miterlimit: 4; fill: rgb(255,255,255); fill-rule: evenodd; opacity: 1;" vector-effect="non-scaling-stroke"  transform=" translate(-351, -399.46)" d="M 348.5 395.5 C 349.833 393.5 351.5 391.833 353.5 390.5 C 355.483 390.157 356.817 390.824 357.5 392.5 C 355.856 394.481 354.19 396.481 352.5 398.5 C 353.193 399.518 353.859 400.518 354.5 401.5 C 354.427 403.027 355.094 404.027 356.5 404.5 C 357.812 405.145 358.812 406.145 359.5 407.5 C 357.579 408.641 355.579 408.808 353.5 408 C 351.707 406.22 350.04 404.387 348.5 402.5 C 346.717 404.023 346.051 406.023 346.5 408.5 C 345.167 408.5 343.833 408.5 342.5 408.5 C 342.5 402.5 342.5 396.5 342.5 390.5 C 343.5 390.5 344.5 390.5 345.5 390.5 C 345.187 393.247 345.52 395.914 346.5 398.5 C 347.919 397.995 348.585 396.995 348.5 395.5 Z" stroke-linecap="round" />
</g>
		<g transform="matrix(1 0 0 1 37.31 124.21)"  >
<path style="stroke: none; stroke-width: 1; stroke-dasharray: none; stroke-linecap: butt; stroke-dashoffset: 0; stroke-linejoin: miter; stroke-miterlimit: 4; fill: rgb(255,255,255); fill-rule: evenodd; opacity: 0.207;" vector-effect="non-scaling-stroke"  transform=" translate(-287, -395.95)" d="M 289.5 390.5 C 288.167 390.5 286.833 390.5 285.5 390.5 C 285.817 394.702 285.483 398.702 284.5 402.5 C 284.5 398.167 284.5 393.833 284.5 389.5 C 286.415 389.216 288.081 389.549 289.5 390.5 Z" stroke-linecap="round" />
</g>
		<g transform="matrix(1 0 0 1 63.75 127.2)"  >
<path style="stroke: none; stroke-width: 1; stroke-dasharray: none; stroke-linecap: butt; stroke-dashoffset: 0; stroke-linejoin: miter; stroke-miterlimit: 4; fill: rgb(255,255,255); fill-rule: evenodd; opacity: 0.306;" vector-effect="non-scaling-stroke"  transform=" translate(-313.44, -398.94)" d="M 319.5 390.5 C 315.833 390.5 312.167 390.5 308.5 390.5 C 308.5 396.5 308.5 402.5 308.5 408.5 C 307.51 402.355 307.177 396.022 307.5 389.5 C 311.702 389.183 315.702 389.517 319.5 390.5 Z" stroke-linecap="round" />
</g>
		<g transform="matrix(1 0 0 1 -34.11 123.26)"  >
<path style="stroke: none; stroke-width: 1; stroke-dasharray: none; stroke-linecap: butt; stroke-dashoffset: 0; stroke-linejoin: miter; stroke-miterlimit: 4; fill: rgb(255,255,255); fill-rule: evenodd; opacity: 0.169;" vector-effect="non-scaling-stroke"  transform=" translate(-215.58, -395)" d="M 216.5 393.5 C 215.89 394.391 215.557 395.391 215.5 396.5 C 214.115 395.053 214.448 394.053 216.5 393.5 Z" stroke-linecap="round" />
</g>
		<g transform="matrix(1 0 0 1 -93.1 126.76)"  >
<path style="stroke: none; stroke-width: 1; stroke-dasharray: none; stroke-linecap: butt; stroke-dashoffset: 0; stroke-linejoin: miter; stroke-miterlimit: 4; fill: rgb(255,255,255); fill-rule: evenodd; opacity: 0.012;" vector-effect="non-scaling-stroke"  transform=" translate(-156.59, -398.5)" d="M 157.5 397.5 C 157.5 398.167 157.5 398.833 157.5 399.5 C 155.067 399.214 155.067 398.548 157.5 397.5 Z" stroke-linecap="round" />
</g>
		<g transform="matrix(1 0 0 1 -37.69 127.76)"  >
<path style="stroke: none; stroke-width: 1; stroke-dasharray: none; stroke-linecap: butt; stroke-dashoffset: 0; stroke-linejoin: miter; stroke-miterlimit: 4; fill: rgb(255,255,255); fill-rule: evenodd; opacity: 0.325;" vector-effect="non-scaling-stroke"  transform=" translate(-212, -399.5)" d="M 210.5 398.5 C 212.027 398.427 213.027 399.094 213.5 400.5 C 211.973 400.573 210.973 399.906 210.5 398.5 Z" stroke-linecap="round" />
</g>
		<g transform="matrix(1 0 0 1 -6.19 129.26)"  >
<path style="stroke: none; stroke-width: 1; stroke-dasharray: none; stroke-linecap: butt; stroke-dashoffset: 0; stroke-linejoin: miter; stroke-miterlimit: 4; fill: rgb(255,255,255); fill-rule: evenodd; opacity: 0.486;" vector-effect="non-scaling-stroke"  transform=" translate(-243.5, -401)" d="M 240.5 393.5 C 242.5 393.5 244.5 393.5 246.5 393.5 C 246.5 398.5 246.5 403.5 246.5 408.5 C 245.514 404.03 245.181 399.363 245.5 394.5 C 243.585 394.784 241.919 394.451 240.5 393.5 Z" stroke-linecap="round" />
</g>
		<g transform="matrix(1 0 0 1 -65.6 128.77)"  >
<path style="stroke: none; stroke-width: 1; stroke-dasharray: none; stroke-linecap: butt; stroke-dashoffset: 0; stroke-linejoin: miter; stroke-miterlimit: 4; fill: rgb(255,255,255); fill-rule: evenodd; opacity: 0.196;" vector-effect="non-scaling-stroke"  transform=" translate(-184.08, -400.51)" d="M 182.5 399.5 C 183.568 400.434 184.901 400.768 186.5 400.5 C 187.009 401.259 186.343 401.592 184.5 401.5 C 183.5 401.167 182.5 400.833 181.5 400.5 C 181.624 399.893 181.957 399.56 182.5 399.5 Z" stroke-linecap="round" />
</g>
		<g transform="matrix(1 0 0 1 -100.19 131.26)"  >
<path style="stroke: none; stroke-width: 1; stroke-dasharray: none; stroke-linecap: butt; stroke-dashoffset: 0; stroke-linejoin: miter; stroke-miterlimit: 4; fill: rgb(255,255,255); fill-rule: evenodd; opacity: 0.698;" vector-effect="non-scaling-stroke"  transform=" translate(-149.5, -403)" d="M 153.5 401.5 C 151.167 401.5 148.833 401.5 146.5 401.5 C 146.5 402.5 146.5 403.5 146.5 404.5 C 148.833 404.5 151.167 404.5 153.5 404.5 C 151.052 405.473 148.385 405.806 145.5 405.5 C 145.5 403.833 145.5 402.167 145.5 400.5 C 148.385 400.194 151.052 400.527 153.5 401.5 Z" stroke-linecap="round" />
</g>
		<g transform="matrix(1 0 0 1 105.81 131.26)"  >
<path style="stroke: none; stroke-width: 1; stroke-dasharray: none; stroke-linecap: butt; stroke-dashoffset: 0; stroke-linejoin: miter; stroke-miterlimit: 4; fill: rgb(255,255,255); fill-rule: evenodd; opacity: 0.494;" vector-effect="non-scaling-stroke"  transform=" translate(-355.5, -403)" d="M 354.5 401.5 C 355.906 401.973 356.573 402.973 356.5 404.5 C 355.094 404.027 354.427 403.027 354.5 401.5 Z" stroke-linecap="round" />
</g>
		<g transform="matrix(1 0 0 1 -65.69 133.76)"  >
<path style="stroke: none; stroke-width: 1; stroke-dasharray: none; stroke-linecap: butt; stroke-dashoffset: 0; stroke-linejoin: miter; stroke-miterlimit: 4; fill: rgb(255,255,255); fill-rule: evenodd; opacity: 0.045;" vector-effect="non-scaling-stroke"  transform=" translate(-184, -405.5)" d="M 188.5 405.5 C 185.391 405.264 182.391 405.597 179.5 406.5 C 180.514 405.235 182.014 404.569 184 404.5 C 185.707 404.508 187.207 404.842 188.5 405.5 Z" stroke-linecap="round" />
</g>
		<g transform="matrix(1 0 0 1 -32.69 132.76)"  >
<path style="stroke: none; stroke-width: 1; stroke-dasharray: none; stroke-linecap: butt; stroke-dashoffset: 0; stroke-linejoin: miter; stroke-miterlimit: 4; fill: rgb(255,255,255); fill-rule: evenodd; opacity: 0.118;" vector-effect="non-scaling-stroke"  transform=" translate(-217, -404.5)" d="M 220.5 403.5 C 219.848 404.725 218.681 405.392 217 405.5 C 215.615 405.486 214.449 405.152 213.5 404.5 C 215.95 404.702 218.283 404.369 220.5 403.5 Z" stroke-linecap="round" />
</g>
		<g transform="matrix(1 0 0 1 -30.19 137.76)"  >
<path style="stroke: none; stroke-width: 1; stroke-dasharray: none; stroke-linecap: butt; stroke-dashoffset: 0; stroke-linejoin: miter; stroke-miterlimit: 4; fill: rgb(255,255,255); fill-rule: evenodd; opacity: 0.051;" vector-effect="non-scaling-stroke"  transform=" translate(-219.5, -409.5)" d="M 220.5 408.5 C 220.5 409.167 220.5 409.833 220.5 410.5 C 217.833 409.833 217.833 409.167 220.5 408.5 Z" stroke-linecap="round" />
</g>
</g>
</g>
</svg>